<mxfile host="app.diagrams.net" modified="2023-11-29T12:41:02.277Z" agent="Mozilla/5.0 (Windows NT 10.0; Win64; x64) AppleWebKit/537.36 (KHTML, like Gecko) Chrome/119.0.0.0 Safari/537.36" etag="sbQDxgXEw0C2ck_FHEgA" version="22.1.4" type="github">
  <diagram name="‫עמוד-1‬" id="BYoa0E2E3-9ikfrHezKe">
    <mxGraphModel dx="1674" dy="1146" grid="0" gridSize="10" guides="1" tooltips="1" connect="1" arrows="1" fold="1" page="0" pageScale="1" pageWidth="827" pageHeight="1169" math="0" shadow="0">
      <root>
        <mxCell id="0" />
        <mxCell id="1" parent="0" />
        <mxCell id="_8J3FFxgakrZv2_MzU__-28" value="arry[]&lt;br&gt;arry.length = 0 =len&lt;br&gt;2&lt;br&gt;arry[2]&lt;br&gt;" style="text;html=1;align=left;verticalAlign=middle;resizable=0;points=[];autosize=1;strokeColor=none;fillColor=none;fontSize=16;" parent="1" vertex="1">
          <mxGeometry x="622" y="-111" width="155" height="89" as="geometry" />
        </mxCell>
        <mxCell id="_8J3FFxgakrZv2_MzU__-79" value="2" style="text;html=1;align=center;verticalAlign=middle;resizable=0;points=[];autosize=1;strokeColor=none;fillColor=none;fontSize=16;" parent="1" vertex="1">
          <mxGeometry x="962" y="-110" width="27" height="31" as="geometry" />
        </mxCell>
        <mxCell id="_8J3FFxgakrZv2_MzU__-81" style="edgeStyle=none;curved=1;rounded=0;orthogonalLoop=1;jettySize=auto;html=1;exitX=0.75;exitY=0;exitDx=0;exitDy=0;fontSize=12;startSize=8;endSize=8;" parent="1" edge="1">
          <mxGeometry relative="1" as="geometry">
            <mxPoint x="1265.25" y="-111" as="sourcePoint" />
            <mxPoint x="1265.25" y="-111" as="targetPoint" />
          </mxGeometry>
        </mxCell>
        <mxCell id="_8J3FFxgakrZv2_MzU__-82" style="edgeStyle=none;curved=1;rounded=0;orthogonalLoop=1;jettySize=auto;html=1;exitX=0.5;exitY=1;exitDx=0;exitDy=0;fontSize=12;startSize=8;endSize=8;" parent="1" source="_8J3FFxgakrZv2_MzU__-83" target="_8J3FFxgakrZv2_MzU__-93" edge="1">
          <mxGeometry relative="1" as="geometry">
            <mxPoint x="1166.25" y="-54" as="targetPoint" />
          </mxGeometry>
        </mxCell>
        <mxCell id="_8J3FFxgakrZv2_MzU__-83" value="start" style="rounded=1;whiteSpace=wrap;html=1;fontSize=16;" parent="1" vertex="1">
          <mxGeometry x="1113.25" y="-101" width="110" height="15" as="geometry" />
        </mxCell>
        <mxCell id="_8J3FFxgakrZv2_MzU__-84" style="edgeStyle=none;curved=1;rounded=0;orthogonalLoop=1;jettySize=auto;html=1;exitX=0.5;exitY=1;exitDx=0;exitDy=0;fontSize=12;startSize=8;endSize=8;" parent="1" source="_8J3FFxgakrZv2_MzU__-85" target="_8J3FFxgakrZv2_MzU__-97" edge="1">
          <mxGeometry relative="1" as="geometry" />
        </mxCell>
        <mxCell id="_8J3FFxgakrZv2_MzU__-85" value="len &amp;lt; 100" style="ellipse;whiteSpace=wrap;html=1;aspect=fixed;fontSize=16;" parent="1" vertex="1">
          <mxGeometry x="1128.25" y="64" width="80" height="80" as="geometry" />
        </mxCell>
        <mxCell id="_8J3FFxgakrZv2_MzU__-86" style="edgeStyle=elbowEdgeStyle;rounded=0;orthogonalLoop=1;jettySize=auto;html=1;exitX=0;exitY=0.5;exitDx=0;exitDy=0;fontSize=12;startSize=8;endSize=8;elbow=vertical;" parent="1" source="_8J3FFxgakrZv2_MzU__-87" target="_8J3FFxgakrZv2_MzU__-93" edge="1">
          <mxGeometry relative="1" as="geometry">
            <mxPoint x="942.25" y="224" as="targetPoint" />
            <Array as="points">
              <mxPoint x="1014.25" y="68" />
            </Array>
          </mxGeometry>
        </mxCell>
        <mxCell id="_8J3FFxgakrZv2_MzU__-100" value="" style="edgeStyle=none;curved=1;rounded=0;orthogonalLoop=1;jettySize=auto;html=1;fontSize=12;startSize=8;endSize=8;" parent="1" source="_8J3FFxgakrZv2_MzU__-87" target="_8J3FFxgakrZv2_MzU__-103" edge="1">
          <mxGeometry relative="1" as="geometry">
            <mxPoint x="1168" y="334" as="targetPoint" />
          </mxGeometry>
        </mxCell>
        <mxCell id="_8J3FFxgakrZv2_MzU__-87" value="arry.push(number)" style="rounded=1;whiteSpace=wrap;html=1;fontSize=16;" parent="1" vertex="1">
          <mxGeometry x="1090.75" y="244" width="155" height="44" as="geometry" />
        </mxCell>
        <mxCell id="_8J3FFxgakrZv2_MzU__-88" value="start" style="rounded=1;whiteSpace=wrap;html=1;fontSize=16;" parent="1" vertex="1">
          <mxGeometry x="1113.25" y="-101" width="110" height="15" as="geometry" />
        </mxCell>
        <mxCell id="_8J3FFxgakrZv2_MzU__-89" style="edgeStyle=none;curved=1;rounded=0;orthogonalLoop=1;jettySize=auto;html=1;exitX=0.5;exitY=1;exitDx=0;exitDy=0;fontSize=12;startSize=8;endSize=8;" parent="1" source="_8J3FFxgakrZv2_MzU__-90" target="_8J3FFxgakrZv2_MzU__-91" edge="1">
          <mxGeometry relative="1" as="geometry" />
        </mxCell>
        <mxCell id="_8J3FFxgakrZv2_MzU__-90" value="arry[]" style="rounded=1;whiteSpace=wrap;html=1;fontSize=16;" parent="1" vertex="1">
          <mxGeometry x="1106.75" y="-46" width="123" height="26" as="geometry" />
        </mxCell>
        <mxCell id="_8J3FFxgakrZv2_MzU__-91" value="len = arry.length" style="rounded=1;whiteSpace=wrap;html=1;fontSize=16;" parent="1" vertex="1">
          <mxGeometry x="1106.75" y="13" width="123" height="26" as="geometry" />
        </mxCell>
        <mxCell id="_8J3FFxgakrZv2_MzU__-92" style="edgeStyle=none;curved=1;rounded=0;orthogonalLoop=1;jettySize=auto;html=1;exitX=0.5;exitY=1;exitDx=0;exitDy=0;fontSize=12;startSize=8;endSize=8;" parent="1" source="_8J3FFxgakrZv2_MzU__-93" target="_8J3FFxgakrZv2_MzU__-95" edge="1">
          <mxGeometry relative="1" as="geometry" />
        </mxCell>
        <mxCell id="_8J3FFxgakrZv2_MzU__-93" value="arry[]" style="rounded=1;whiteSpace=wrap;html=1;fontSize=16;" parent="1" vertex="1">
          <mxGeometry x="1106.75" y="-46" width="123" height="26" as="geometry" />
        </mxCell>
        <mxCell id="_8J3FFxgakrZv2_MzU__-94" style="edgeStyle=none;curved=1;rounded=0;orthogonalLoop=1;jettySize=auto;html=1;exitX=0.5;exitY=1;exitDx=0;exitDy=0;fontSize=12;startSize=8;endSize=8;" parent="1" source="_8J3FFxgakrZv2_MzU__-95" target="_8J3FFxgakrZv2_MzU__-85" edge="1">
          <mxGeometry relative="1" as="geometry">
            <mxPoint x="1166.984693877551" y="70" as="targetPoint" />
          </mxGeometry>
        </mxCell>
        <mxCell id="_8J3FFxgakrZv2_MzU__-95" value="len = arry.length" style="rounded=1;whiteSpace=wrap;html=1;fontSize=16;" parent="1" vertex="1">
          <mxGeometry x="1106.75" y="13" width="123" height="26" as="geometry" />
        </mxCell>
        <mxCell id="_8J3FFxgakrZv2_MzU__-96" style="edgeStyle=none;curved=1;rounded=0;orthogonalLoop=1;jettySize=auto;html=1;exitX=0.5;exitY=1;exitDx=0;exitDy=0;exitPerimeter=0;fontSize=12;startSize=8;endSize=8;" parent="1" source="_8J3FFxgakrZv2_MzU__-97" target="_8J3FFxgakrZv2_MzU__-87" edge="1">
          <mxGeometry relative="1" as="geometry" />
        </mxCell>
        <mxCell id="_8J3FFxgakrZv2_MzU__-97" value="number" style="shape=card;whiteSpace=wrap;html=1;fontSize=16;" parent="1" vertex="1">
          <mxGeometry x="1110.75" y="164" width="115" height="44" as="geometry" />
        </mxCell>
        <mxCell id="_8J3FFxgakrZv2_MzU__-113" style="edgeStyle=none;curved=1;rounded=0;orthogonalLoop=1;jettySize=auto;html=1;exitX=0.5;exitY=1;exitDx=0;exitDy=0;entryX=0.5;entryY=0;entryDx=0;entryDy=0;fontSize=12;startSize=8;endSize=8;" parent="1" source="_8J3FFxgakrZv2_MzU__-99" target="_8J3FFxgakrZv2_MzU__-109" edge="1">
          <mxGeometry relative="1" as="geometry" />
        </mxCell>
        <mxCell id="_8J3FFxgakrZv2_MzU__-99" value="i = 0&amp;nbsp;&lt;br&gt;i &amp;lt; len&lt;br&gt;i ++" style="ellipse;whiteSpace=wrap;html=1;aspect=fixed;fontSize=16;" parent="1" vertex="1">
          <mxGeometry x="1128.25" y="393" width="80" height="80" as="geometry" />
        </mxCell>
        <mxCell id="_8J3FFxgakrZv2_MzU__-110" value="" style="edgeStyle=none;curved=1;rounded=0;orthogonalLoop=1;jettySize=auto;html=1;fontSize=12;startSize=8;endSize=8;" parent="1" source="_8J3FFxgakrZv2_MzU__-103" target="_8J3FFxgakrZv2_MzU__-99" edge="1">
          <mxGeometry relative="1" as="geometry" />
        </mxCell>
        <mxCell id="_8J3FFxgakrZv2_MzU__-103" value="sum = 0" style="rounded=1;whiteSpace=wrap;html=1;fontSize=16;" parent="1" vertex="1">
          <mxGeometry x="1110.75" y="337" width="116.25" height="21" as="geometry" />
        </mxCell>
        <mxCell id="_8J3FFxgakrZv2_MzU__-108" value="" style="edgeStyle=none;curved=1;rounded=0;orthogonalLoop=1;jettySize=auto;html=1;fontSize=12;startSize=8;endSize=8;" parent="1" source="_8J3FFxgakrZv2_MzU__-105" edge="1">
          <mxGeometry relative="1" as="geometry">
            <mxPoint x="1170.0456204379561" y="948" as="targetPoint" />
          </mxGeometry>
        </mxCell>
        <mxCell id="_8J3FFxgakrZv2_MzU__-105" value="sum += arry2[i]" style="whiteSpace=wrap;html=1;fontSize=16;" parent="1" vertex="1">
          <mxGeometry x="1109.75" y="864" width="120" height="60" as="geometry" />
        </mxCell>
        <mxCell id="_8J3FFxgakrZv2_MzU__-117" value="" style="edgeStyle=none;curved=1;rounded=0;orthogonalLoop=1;jettySize=auto;html=1;fontSize=12;startSize=8;endSize=8;" parent="1" target="_8J3FFxgakrZv2_MzU__-116" edge="1">
          <mxGeometry relative="1" as="geometry">
            <mxPoint x="1170.125" y="977" as="sourcePoint" />
          </mxGeometry>
        </mxCell>
        <mxCell id="_8J3FFxgakrZv2_MzU__-107" value="average = sum / arry2.length" style="whiteSpace=wrap;html=1;fontSize=16;" parent="1" vertex="1">
          <mxGeometry x="1062.25" y="947" width="215.75" height="29" as="geometry" />
        </mxCell>
        <mxCell id="_8J3FFxgakrZv2_MzU__-158" value="" style="edgeStyle=none;curved=1;rounded=0;orthogonalLoop=1;jettySize=auto;html=1;fontSize=12;startSize=8;endSize=8;" parent="1" source="_8J3FFxgakrZv2_MzU__-109" target="_8J3FFxgakrZv2_MzU__-157" edge="1">
          <mxGeometry relative="1" as="geometry" />
        </mxCell>
        <mxCell id="_8J3FFxgakrZv2_MzU__-109" value="arry2[]" style="rounded=1;whiteSpace=wrap;html=1;fontSize=16;" parent="1" vertex="1">
          <mxGeometry x="1109.5" y="501" width="116.25" height="21" as="geometry" />
        </mxCell>
        <mxCell id="_8J3FFxgakrZv2_MzU__-216" style="edgeStyle=none;curved=1;rounded=0;orthogonalLoop=1;jettySize=auto;html=1;exitX=0.5;exitY=0;exitDx=0;exitDy=0;entryX=0.5;entryY=1;entryDx=0;entryDy=0;fontSize=12;startSize=8;endSize=8;" parent="1" source="_8J3FFxgakrZv2_MzU__-116" target="_8J3FFxgakrZv2_MzU__-215" edge="1">
          <mxGeometry relative="1" as="geometry" />
        </mxCell>
        <mxCell id="_8J3FFxgakrZv2_MzU__-116" value="average" style="shape=document;whiteSpace=wrap;html=1;boundedLbl=1;fontSize=16;" parent="1" vertex="1">
          <mxGeometry x="1110.125" y="1020.5" width="120" height="80" as="geometry" />
        </mxCell>
        <mxCell id="_8J3FFxgakrZv2_MzU__-118" value="3" style="text;html=1;align=center;verticalAlign=middle;resizable=0;points=[];autosize=1;strokeColor=none;fillColor=none;fontSize=16;" parent="1" vertex="1">
          <mxGeometry x="1472" y="-109" width="27" height="31" as="geometry" />
        </mxCell>
        <mxCell id="_8J3FFxgakrZv2_MzU__-119" style="edgeStyle=none;curved=1;rounded=0;orthogonalLoop=1;jettySize=auto;html=1;exitX=0.75;exitY=0;exitDx=0;exitDy=0;fontSize=12;startSize=8;endSize=8;" parent="1" edge="1">
          <mxGeometry relative="1" as="geometry">
            <mxPoint x="1775.25" y="-110" as="sourcePoint" />
            <mxPoint x="1775.25" y="-110" as="targetPoint" />
          </mxGeometry>
        </mxCell>
        <mxCell id="_8J3FFxgakrZv2_MzU__-120" style="edgeStyle=none;curved=1;rounded=0;orthogonalLoop=1;jettySize=auto;html=1;exitX=0.5;exitY=1;exitDx=0;exitDy=0;fontSize=12;startSize=8;endSize=8;" parent="1" source="_8J3FFxgakrZv2_MzU__-121" target="_8J3FFxgakrZv2_MzU__-131" edge="1">
          <mxGeometry relative="1" as="geometry">
            <mxPoint x="1676.25" y="-53" as="targetPoint" />
          </mxGeometry>
        </mxCell>
        <mxCell id="_8J3FFxgakrZv2_MzU__-121" value="start" style="rounded=1;whiteSpace=wrap;html=1;fontSize=16;" parent="1" vertex="1">
          <mxGeometry x="1623.25" y="-100" width="110" height="15" as="geometry" />
        </mxCell>
        <mxCell id="_8J3FFxgakrZv2_MzU__-122" style="edgeStyle=none;curved=1;rounded=0;orthogonalLoop=1;jettySize=auto;html=1;exitX=0.5;exitY=1;exitDx=0;exitDy=0;fontSize=12;startSize=8;endSize=8;" parent="1" source="_8J3FFxgakrZv2_MzU__-123" target="_8J3FFxgakrZv2_MzU__-135" edge="1">
          <mxGeometry relative="1" as="geometry" />
        </mxCell>
        <mxCell id="_8J3FFxgakrZv2_MzU__-123" value="len &amp;lt; 60" style="ellipse;whiteSpace=wrap;html=1;aspect=fixed;fontSize=16;" parent="1" vertex="1">
          <mxGeometry x="1638.25" y="65" width="80" height="80" as="geometry" />
        </mxCell>
        <mxCell id="_8J3FFxgakrZv2_MzU__-124" style="edgeStyle=elbowEdgeStyle;rounded=0;orthogonalLoop=1;jettySize=auto;html=1;exitX=0;exitY=0.5;exitDx=0;exitDy=0;fontSize=12;startSize=8;endSize=8;elbow=vertical;" parent="1" source="_8J3FFxgakrZv2_MzU__-125" target="_8J3FFxgakrZv2_MzU__-131" edge="1">
          <mxGeometry relative="1" as="geometry">
            <mxPoint x="1452.25" y="225" as="targetPoint" />
            <Array as="points">
              <mxPoint x="1524.25" y="69" />
            </Array>
          </mxGeometry>
        </mxCell>
        <mxCell id="_8J3FFxgakrZv2_MzU__-138" value="" style="edgeStyle=none;curved=1;rounded=0;orthogonalLoop=1;jettySize=auto;html=1;fontSize=12;startSize=8;endSize=8;entryX=0.5;entryY=0;entryDx=0;entryDy=0;" parent="1" source="_8J3FFxgakrZv2_MzU__-125" target="_8J3FFxgakrZv2_MzU__-153" edge="1">
          <mxGeometry relative="1" as="geometry">
            <mxPoint x="1678.25" y="325" as="targetPoint" />
          </mxGeometry>
        </mxCell>
        <mxCell id="_8J3FFxgakrZv2_MzU__-125" value="arry.push(number)" style="rounded=1;whiteSpace=wrap;html=1;fontSize=16;" parent="1" vertex="1">
          <mxGeometry x="1600.75" y="245" width="155" height="44" as="geometry" />
        </mxCell>
        <mxCell id="_8J3FFxgakrZv2_MzU__-126" value="start" style="rounded=1;whiteSpace=wrap;html=1;fontSize=16;" parent="1" vertex="1">
          <mxGeometry x="1623.25" y="-100" width="110" height="15" as="geometry" />
        </mxCell>
        <mxCell id="_8J3FFxgakrZv2_MzU__-127" style="edgeStyle=none;curved=1;rounded=0;orthogonalLoop=1;jettySize=auto;html=1;exitX=0.5;exitY=1;exitDx=0;exitDy=0;fontSize=12;startSize=8;endSize=8;" parent="1" source="_8J3FFxgakrZv2_MzU__-128" target="_8J3FFxgakrZv2_MzU__-129" edge="1">
          <mxGeometry relative="1" as="geometry" />
        </mxCell>
        <mxCell id="_8J3FFxgakrZv2_MzU__-128" value="arry[]" style="rounded=1;whiteSpace=wrap;html=1;fontSize=16;" parent="1" vertex="1">
          <mxGeometry x="1616.75" y="-45" width="123" height="26" as="geometry" />
        </mxCell>
        <mxCell id="_8J3FFxgakrZv2_MzU__-129" value="len = arry.length" style="rounded=1;whiteSpace=wrap;html=1;fontSize=16;" parent="1" vertex="1">
          <mxGeometry x="1616.75" y="14" width="123" height="26" as="geometry" />
        </mxCell>
        <mxCell id="_8J3FFxgakrZv2_MzU__-130" style="edgeStyle=none;curved=1;rounded=0;orthogonalLoop=1;jettySize=auto;html=1;exitX=0.5;exitY=1;exitDx=0;exitDy=0;fontSize=12;startSize=8;endSize=8;" parent="1" source="_8J3FFxgakrZv2_MzU__-131" edge="1">
          <mxGeometry relative="1" as="geometry">
            <mxPoint x="1678.25" y="14" as="targetPoint" />
          </mxGeometry>
        </mxCell>
        <mxCell id="_8J3FFxgakrZv2_MzU__-131" value="arry[]" style="rounded=1;whiteSpace=wrap;html=1;fontSize=16;" parent="1" vertex="1">
          <mxGeometry x="1616.75" y="-45" width="123" height="26" as="geometry" />
        </mxCell>
        <mxCell id="_8J3FFxgakrZv2_MzU__-132" style="edgeStyle=none;curved=1;rounded=0;orthogonalLoop=1;jettySize=auto;html=1;exitX=0.5;exitY=1;exitDx=0;exitDy=0;fontSize=12;startSize=8;endSize=8;" parent="1" target="_8J3FFxgakrZv2_MzU__-123" edge="1">
          <mxGeometry relative="1" as="geometry">
            <mxPoint x="1676.984693877551" y="71" as="targetPoint" />
            <mxPoint x="1678.25" y="40" as="sourcePoint" />
          </mxGeometry>
        </mxCell>
        <mxCell id="_8J3FFxgakrZv2_MzU__-134" style="edgeStyle=none;curved=1;rounded=0;orthogonalLoop=1;jettySize=auto;html=1;exitX=0.5;exitY=1;exitDx=0;exitDy=0;exitPerimeter=0;fontSize=12;startSize=8;endSize=8;" parent="1" source="_8J3FFxgakrZv2_MzU__-135" target="_8J3FFxgakrZv2_MzU__-125" edge="1">
          <mxGeometry relative="1" as="geometry" />
        </mxCell>
        <mxCell id="_8J3FFxgakrZv2_MzU__-135" value="number" style="shape=card;whiteSpace=wrap;html=1;fontSize=16;" parent="1" vertex="1">
          <mxGeometry x="1620.75" y="165" width="115" height="44" as="geometry" />
        </mxCell>
        <mxCell id="_8J3FFxgakrZv2_MzU__-150" style="edgeStyle=none;curved=1;rounded=0;orthogonalLoop=1;jettySize=auto;html=1;exitX=0.5;exitY=1;exitDx=0;exitDy=0;entryX=0.5;entryY=0;entryDx=0;entryDy=0;fontSize=12;startSize=8;endSize=8;" parent="1" source="_8J3FFxgakrZv2_MzU__-151" target="_8J3FFxgakrZv2_MzU__-154" edge="1">
          <mxGeometry relative="1" as="geometry" />
        </mxCell>
        <mxCell id="_8J3FFxgakrZv2_MzU__-151" value="i = 0&amp;nbsp;&lt;br&gt;i &amp;lt; len&lt;br&gt;i ++" style="ellipse;whiteSpace=wrap;html=1;aspect=fixed;fontSize=16;" parent="1" vertex="1">
          <mxGeometry x="1638.25" y="393" width="80" height="80" as="geometry" />
        </mxCell>
        <mxCell id="_8J3FFxgakrZv2_MzU__-152" value="" style="edgeStyle=none;curved=1;rounded=0;orthogonalLoop=1;jettySize=auto;html=1;fontSize=12;startSize=8;endSize=8;" parent="1" source="_8J3FFxgakrZv2_MzU__-153" target="_8J3FFxgakrZv2_MzU__-151" edge="1">
          <mxGeometry relative="1" as="geometry" />
        </mxCell>
        <mxCell id="_8J3FFxgakrZv2_MzU__-153" value="sum = 0" style="rounded=1;whiteSpace=wrap;html=1;fontSize=16;" parent="1" vertex="1">
          <mxGeometry x="1620.75" y="337" width="116.25" height="21" as="geometry" />
        </mxCell>
        <mxCell id="_8J3FFxgakrZv2_MzU__-169" style="edgeStyle=none;curved=1;rounded=0;orthogonalLoop=1;jettySize=auto;html=1;exitX=0.5;exitY=1;exitDx=0;exitDy=0;fontSize=12;startSize=8;endSize=8;" parent="1" source="_8J3FFxgakrZv2_MzU__-154" target="_8J3FFxgakrZv2_MzU__-168" edge="1">
          <mxGeometry relative="1" as="geometry" />
        </mxCell>
        <mxCell id="_8J3FFxgakrZv2_MzU__-154" value="sum += arry[i]" style="rounded=1;whiteSpace=wrap;html=1;fontSize=16;" parent="1" vertex="1">
          <mxGeometry x="1619.5" y="501" width="116.25" height="21" as="geometry" />
        </mxCell>
        <mxCell id="_8J3FFxgakrZv2_MzU__-160" style="edgeStyle=none;curved=1;rounded=0;orthogonalLoop=1;jettySize=auto;html=1;exitX=0.5;exitY=1;exitDx=0;exitDy=0;fontSize=12;startSize=8;endSize=8;" parent="1" source="_8J3FFxgakrZv2_MzU__-157" target="_8J3FFxgakrZv2_MzU__-159" edge="1">
          <mxGeometry relative="1" as="geometry" />
        </mxCell>
        <mxCell id="_8J3FFxgakrZv2_MzU__-157" value="arry[i] % 2 === 0&amp;nbsp;" style="rhombus;whiteSpace=wrap;html=1;fontSize=16;" parent="1" vertex="1">
          <mxGeometry x="1081.5600000000002" y="554" width="172.12" height="56" as="geometry" />
        </mxCell>
        <mxCell id="_8J3FFxgakrZv2_MzU__-162" style="edgeStyle=none;curved=1;rounded=0;orthogonalLoop=1;jettySize=auto;html=1;exitX=0.5;exitY=1;exitDx=0;exitDy=0;fontSize=12;startSize=8;endSize=8;" parent="1" target="_8J3FFxgakrZv2_MzU__-161" edge="1">
          <mxGeometry relative="1" as="geometry">
            <mxPoint x="1168.62" y="681" as="sourcePoint" />
            <mxPoint x="1170.1054224834215" y="701.0452804299275" as="targetPoint" />
          </mxGeometry>
        </mxCell>
        <mxCell id="_8J3FFxgakrZv2_MzU__-159" value="arry2.push(arry[i])" style="rounded=1;whiteSpace=wrap;html=1;fontSize=16;" parent="1" vertex="1">
          <mxGeometry x="1092.62" y="641" width="150" height="40" as="geometry" />
        </mxCell>
        <mxCell id="_8J3FFxgakrZv2_MzU__-165" style="edgeStyle=none;curved=1;rounded=0;orthogonalLoop=1;jettySize=auto;html=1;exitX=0.5;exitY=1;exitDx=0;exitDy=0;entryX=0.5;entryY=0;entryDx=0;entryDy=0;fontSize=12;startSize=8;endSize=8;" parent="1" source="_8J3FFxgakrZv2_MzU__-161" target="_8J3FFxgakrZv2_MzU__-105" edge="1">
          <mxGeometry relative="1" as="geometry" />
        </mxCell>
        <mxCell id="_8J3FFxgakrZv2_MzU__-161" value="i = 0&lt;br&gt;i &amp;lt; arry2.length&lt;br&gt;i++&amp;nbsp;" style="ellipse;whiteSpace=wrap;html=1;aspect=fixed;fontSize=16;" parent="1" vertex="1">
          <mxGeometry x="1102.9399999999998" y="703" width="134.38" height="134.38" as="geometry" />
        </mxCell>
        <mxCell id="_8J3FFxgakrZv2_MzU__-173" style="edgeStyle=none;curved=1;rounded=0;orthogonalLoop=1;jettySize=auto;html=1;exitX=0.5;exitY=1;exitDx=0;exitDy=0;fontSize=12;startSize=8;endSize=8;" parent="1" source="_8J3FFxgakrZv2_MzU__-168" target="_8J3FFxgakrZv2_MzU__-172" edge="1">
          <mxGeometry relative="1" as="geometry" />
        </mxCell>
        <mxCell id="_8J3FFxgakrZv2_MzU__-168" value="i = 0&amp;nbsp;&lt;br&gt;i &amp;lt; len&lt;br&gt;i ++" style="ellipse;whiteSpace=wrap;html=1;aspect=fixed;fontSize=16;" parent="1" vertex="1">
          <mxGeometry x="1637.63" y="556" width="80" height="80" as="geometry" />
        </mxCell>
        <mxCell id="_8J3FFxgakrZv2_MzU__-175" style="edgeStyle=none;curved=1;rounded=0;orthogonalLoop=1;jettySize=auto;html=1;exitX=0.5;exitY=1;exitDx=0;exitDy=0;fontSize=12;startSize=8;endSize=8;" parent="1" source="_8J3FFxgakrZv2_MzU__-172" target="_8J3FFxgakrZv2_MzU__-174" edge="1">
          <mxGeometry relative="1" as="geometry" />
        </mxCell>
        <mxCell id="_8J3FFxgakrZv2_MzU__-172" value="sum - arry[i] === arry[i]" style="rhombus;whiteSpace=wrap;html=1;fontSize=16;" parent="1" vertex="1">
          <mxGeometry x="1555.88" y="665" width="243.5" height="67" as="geometry" />
        </mxCell>
        <mxCell id="_8J3FFxgakrZv2_MzU__-218" style="edgeStyle=none;curved=1;rounded=0;orthogonalLoop=1;jettySize=auto;html=1;exitX=0.5;exitY=0;exitDx=0;exitDy=0;entryX=0.5;entryY=1;entryDx=0;entryDy=0;fontSize=12;startSize=8;endSize=8;" parent="1" source="_8J3FFxgakrZv2_MzU__-174" target="_8J3FFxgakrZv2_MzU__-217" edge="1">
          <mxGeometry relative="1" as="geometry" />
        </mxCell>
        <mxCell id="_8J3FFxgakrZv2_MzU__-174" value="i" style="shape=document;whiteSpace=wrap;html=1;boundedLbl=1;fontSize=16;" parent="1" vertex="1">
          <mxGeometry x="1618.88" y="765" width="120" height="80" as="geometry" />
        </mxCell>
        <mxCell id="_8J3FFxgakrZv2_MzU__-176" value="4.1" style="text;html=1;align=center;verticalAlign=middle;resizable=0;points=[];autosize=1;strokeColor=none;fillColor=none;fontSize=16;" parent="1" vertex="1">
          <mxGeometry x="2017" y="-109" width="40" height="31" as="geometry" />
        </mxCell>
        <mxCell id="_8J3FFxgakrZv2_MzU__-177" style="edgeStyle=none;curved=1;rounded=0;orthogonalLoop=1;jettySize=auto;html=1;exitX=0.75;exitY=0;exitDx=0;exitDy=0;fontSize=12;startSize=8;endSize=8;" parent="1" edge="1">
          <mxGeometry relative="1" as="geometry">
            <mxPoint x="2326.25" y="-110" as="sourcePoint" />
            <mxPoint x="2326.25" y="-110" as="targetPoint" />
          </mxGeometry>
        </mxCell>
        <mxCell id="_8J3FFxgakrZv2_MzU__-179" value="start" style="rounded=1;whiteSpace=wrap;html=1;fontSize=16;" parent="1" vertex="1">
          <mxGeometry x="2174.25" y="-100" width="110" height="15" as="geometry" />
        </mxCell>
        <mxCell id="_8J3FFxgakrZv2_MzU__-180" style="edgeStyle=none;curved=1;rounded=0;orthogonalLoop=1;jettySize=auto;html=1;exitX=0.5;exitY=1;exitDx=0;exitDy=0;fontSize=12;startSize=8;endSize=8;" parent="1" source="_8J3FFxgakrZv2_MzU__-181" target="_8J3FFxgakrZv2_MzU__-192" edge="1">
          <mxGeometry relative="1" as="geometry" />
        </mxCell>
        <mxCell id="_8J3FFxgakrZv2_MzU__-181" value="len &amp;lt; 20" style="ellipse;whiteSpace=wrap;html=1;aspect=fixed;fontSize=16;" parent="1" vertex="1">
          <mxGeometry x="2190" y="134.5" width="80" height="80" as="geometry" />
        </mxCell>
        <mxCell id="_8J3FFxgakrZv2_MzU__-182" style="edgeStyle=elbowEdgeStyle;rounded=0;orthogonalLoop=1;jettySize=auto;html=1;exitX=0;exitY=0.5;exitDx=0;exitDy=0;fontSize=12;startSize=8;endSize=8;elbow=vertical;" parent="1" source="_8J3FFxgakrZv2_MzU__-183" target="_8J3FFxgakrZv2_MzU__-189" edge="1">
          <mxGeometry relative="1" as="geometry">
            <mxPoint x="2004" y="319.5" as="targetPoint" />
            <Array as="points">
              <mxPoint x="2076" y="163.5" />
            </Array>
          </mxGeometry>
        </mxCell>
        <mxCell id="_8J3FFxgakrZv2_MzU__-183" value="arry.push(number)" style="rounded=1;whiteSpace=wrap;html=1;fontSize=16;" parent="1" vertex="1">
          <mxGeometry x="2152.5" y="314.5" width="155" height="44" as="geometry" />
        </mxCell>
        <mxCell id="_8J3FFxgakrZv2_MzU__-204" style="edgeStyle=none;curved=1;rounded=0;orthogonalLoop=1;jettySize=auto;html=1;exitX=0.5;exitY=1;exitDx=0;exitDy=0;entryX=0.5;entryY=0;entryDx=0;entryDy=0;fontSize=12;startSize=8;endSize=8;" parent="1" source="_8J3FFxgakrZv2_MzU__-184" target="_8J3FFxgakrZv2_MzU__-203" edge="1">
          <mxGeometry relative="1" as="geometry" />
        </mxCell>
        <mxCell id="_8J3FFxgakrZv2_MzU__-184" value="start" style="rounded=1;whiteSpace=wrap;html=1;fontSize=16;" parent="1" vertex="1">
          <mxGeometry x="2174.25" y="-100" width="110" height="15" as="geometry" />
        </mxCell>
        <mxCell id="_8J3FFxgakrZv2_MzU__-187" value="len = arry.length" style="rounded=1;whiteSpace=wrap;html=1;fontSize=16;" parent="1" vertex="1">
          <mxGeometry x="2168.25" y="89" width="123" height="26" as="geometry" />
        </mxCell>
        <mxCell id="_8J3FFxgakrZv2_MzU__-188" style="edgeStyle=none;curved=1;rounded=0;orthogonalLoop=1;jettySize=auto;html=1;exitX=0.5;exitY=1;exitDx=0;exitDy=0;fontSize=12;startSize=8;endSize=8;" parent="1" source="_8J3FFxgakrZv2_MzU__-189" edge="1" target="_8J3FFxgakrZv2_MzU__-187">
          <mxGeometry relative="1" as="geometry">
            <mxPoint x="2230" y="112" as="targetPoint" />
          </mxGeometry>
        </mxCell>
        <mxCell id="_8J3FFxgakrZv2_MzU__-189" value="arry[]" style="rounded=1;whiteSpace=wrap;html=1;fontSize=16;" parent="1" vertex="1">
          <mxGeometry x="2168.5" y="28.5" width="123" height="26" as="geometry" />
        </mxCell>
        <mxCell id="_8J3FFxgakrZv2_MzU__-190" style="edgeStyle=none;curved=1;rounded=0;orthogonalLoop=1;jettySize=auto;html=1;fontSize=12;startSize=8;endSize=8;" parent="1" target="_8J3FFxgakrZv2_MzU__-181" edge="1" source="_8J3FFxgakrZv2_MzU__-187">
          <mxGeometry relative="1" as="geometry">
            <mxPoint x="2228.734693877551" y="165.5" as="targetPoint" />
            <mxPoint x="2230" y="134.5" as="sourcePoint" />
          </mxGeometry>
        </mxCell>
        <mxCell id="_8J3FFxgakrZv2_MzU__-191" style="edgeStyle=none;curved=1;rounded=0;orthogonalLoop=1;jettySize=auto;html=1;exitX=0.5;exitY=1;exitDx=0;exitDy=0;exitPerimeter=0;fontSize=12;startSize=8;endSize=8;" parent="1" source="_8J3FFxgakrZv2_MzU__-192" target="_8J3FFxgakrZv2_MzU__-183" edge="1">
          <mxGeometry relative="1" as="geometry" />
        </mxCell>
        <mxCell id="_8J3FFxgakrZv2_MzU__-192" value="number" style="shape=card;whiteSpace=wrap;html=1;fontSize=16;" parent="1" vertex="1">
          <mxGeometry x="2172.5" y="234.5" width="115" height="44" as="geometry" />
        </mxCell>
        <mxCell id="_8J3FFxgakrZv2_MzU__-201" style="edgeStyle=none;curved=1;rounded=0;orthogonalLoop=1;jettySize=auto;html=1;exitX=0.5;exitY=1;exitDx=0;exitDy=0;fontSize=12;startSize=8;endSize=8;" parent="1" target="_8J3FFxgakrZv2_MzU__-200" edge="1">
          <mxGeometry relative="1" as="geometry">
            <mxPoint x="2230" y="451.5" as="sourcePoint" />
          </mxGeometry>
        </mxCell>
        <mxCell id="_8J3FFxgakrZv2_MzU__-193" value="i = 0&amp;nbsp;&lt;br&gt;i &amp;lt; 10&lt;br&gt;i ++" style="ellipse;whiteSpace=wrap;html=1;aspect=fixed;fontSize=16;" parent="1" vertex="1">
          <mxGeometry x="2190" y="377.5" width="80" height="80" as="geometry" />
        </mxCell>
        <mxCell id="_8J3FFxgakrZv2_MzU__-199" value="" style="edgeStyle=none;curved=1;rounded=0;orthogonalLoop=1;jettySize=auto;html=1;fontSize=12;startSize=8;endSize=8;" parent="1" source="_8J3FFxgakrZv2_MzU__-183" target="_8J3FFxgakrZv2_MzU__-193" edge="1">
          <mxGeometry relative="1" as="geometry">
            <mxPoint x="2231.410565183818" y="426.5" as="sourcePoint" />
          </mxGeometry>
        </mxCell>
        <mxCell id="_8J3FFxgakrZv2_MzU__-210" value="" style="edgeStyle=none;curved=1;rounded=0;orthogonalLoop=1;jettySize=auto;html=1;fontSize=12;startSize=8;endSize=8;" parent="1" source="_8J3FFxgakrZv2_MzU__-200" target="_8J3FFxgakrZv2_MzU__-208" edge="1">
          <mxGeometry relative="1" as="geometry" />
        </mxCell>
        <mxCell id="_8J3FFxgakrZv2_MzU__-200" value="arry1.push(arry[i])" style="rounded=1;whiteSpace=wrap;html=1;fontSize=16;" parent="1" vertex="1">
          <mxGeometry x="2151.75" y="487" width="155" height="44" as="geometry" />
        </mxCell>
        <mxCell id="_8J3FFxgakrZv2_MzU__-206" style="edgeStyle=none;curved=1;rounded=0;orthogonalLoop=1;jettySize=auto;html=1;exitX=0.5;exitY=1;exitDx=0;exitDy=0;fontSize=12;startSize=8;endSize=8;" parent="1" source="_8J3FFxgakrZv2_MzU__-202" target="_8J3FFxgakrZv2_MzU__-189" edge="1">
          <mxGeometry relative="1" as="geometry" />
        </mxCell>
        <mxCell id="_8J3FFxgakrZv2_MzU__-202" value="arry2[]" style="rounded=1;whiteSpace=wrap;html=1;fontSize=16;" parent="1" vertex="1">
          <mxGeometry x="2167.75" y="-19" width="123" height="26" as="geometry" />
        </mxCell>
        <mxCell id="_8J3FFxgakrZv2_MzU__-205" style="edgeStyle=none;curved=1;rounded=0;orthogonalLoop=1;jettySize=auto;html=1;exitX=0.5;exitY=1;exitDx=0;exitDy=0;fontSize=12;startSize=8;endSize=8;" parent="1" source="_8J3FFxgakrZv2_MzU__-203" target="_8J3FFxgakrZv2_MzU__-202" edge="1">
          <mxGeometry relative="1" as="geometry" />
        </mxCell>
        <mxCell id="_8J3FFxgakrZv2_MzU__-203" value="arry1[]" style="rounded=1;whiteSpace=wrap;html=1;fontSize=16;" parent="1" vertex="1">
          <mxGeometry x="2167.75" y="-64" width="123" height="26" as="geometry" />
        </mxCell>
        <mxCell id="_8J3FFxgakrZv2_MzU__-207" style="edgeStyle=none;curved=1;rounded=0;orthogonalLoop=1;jettySize=auto;html=1;exitX=0.5;exitY=1;exitDx=0;exitDy=0;fontSize=12;startSize=8;endSize=8;" parent="1" source="_8J3FFxgakrZv2_MzU__-208" target="_8J3FFxgakrZv2_MzU__-209" edge="1">
          <mxGeometry relative="1" as="geometry" />
        </mxCell>
        <mxCell id="_8J3FFxgakrZv2_MzU__-208" value="i = 0&amp;nbsp;&lt;br&gt;i &amp;gt; 10&lt;br&gt;&amp;nbsp;&amp;amp;&amp;amp;&lt;br&gt;&amp;nbsp;i &amp;lt; arry.lrngth&lt;br&gt;i ++" style="ellipse;whiteSpace=wrap;html=1;aspect=fixed;fontSize=16;" parent="1" vertex="1">
          <mxGeometry x="2164.88" y="555.75" width="123.25" height="123.25" as="geometry" />
        </mxCell>
        <mxCell id="_8J3FFxgakrZv2_MzU__-212" value="" style="edgeStyle=none;curved=1;rounded=0;orthogonalLoop=1;jettySize=auto;html=1;fontSize=12;startSize=8;endSize=8;" parent="1" source="_8J3FFxgakrZv2_MzU__-209" target="_8J3FFxgakrZv2_MzU__-211" edge="1">
          <mxGeometry relative="1" as="geometry" />
        </mxCell>
        <mxCell id="_8J3FFxgakrZv2_MzU__-209" value="arry2.push(arry[i])" style="rounded=1;whiteSpace=wrap;html=1;fontSize=16;" parent="1" vertex="1">
          <mxGeometry x="2149" y="707" width="155" height="44" as="geometry" />
        </mxCell>
        <mxCell id="_8J3FFxgakrZv2_MzU__-220" style="edgeStyle=none;curved=1;rounded=0;orthogonalLoop=1;jettySize=auto;html=1;exitX=0.5;exitY=0;exitDx=0;exitDy=0;fontSize=12;startSize=8;endSize=8;" parent="1" source="_8J3FFxgakrZv2_MzU__-211" target="_8J3FFxgakrZv2_MzU__-219" edge="1">
          <mxGeometry relative="1" as="geometry" />
        </mxCell>
        <mxCell id="_8J3FFxgakrZv2_MzU__-211" value="arry2 + arry1" style="shape=document;whiteSpace=wrap;html=1;boundedLbl=1;fontSize=16;" parent="1" vertex="1">
          <mxGeometry x="2166.51" y="781" width="120" height="80" as="geometry" />
        </mxCell>
        <mxCell id="_8J3FFxgakrZv2_MzU__-215" value="stop" style="whiteSpace=wrap;html=1;fontSize=16;rounded=1;" parent="1" vertex="1">
          <mxGeometry x="1111.75" y="1121" width="113" height="21" as="geometry" />
        </mxCell>
        <mxCell id="_8J3FFxgakrZv2_MzU__-217" value="stop" style="whiteSpace=wrap;html=1;fontSize=16;rounded=1;" parent="1" vertex="1">
          <mxGeometry x="1621.13" y="878" width="113" height="21" as="geometry" />
        </mxCell>
        <mxCell id="_8J3FFxgakrZv2_MzU__-219" value="stop" style="whiteSpace=wrap;html=1;fontSize=16;rounded=1;" parent="1" vertex="1">
          <mxGeometry x="2171.5" y="880" width="113" height="21" as="geometry" />
        </mxCell>
        <mxCell id="_8J3FFxgakrZv2_MzU__-221" value="4.2" style="text;html=1;align=center;verticalAlign=middle;resizable=0;points=[];autosize=1;strokeColor=none;fillColor=none;fontSize=16;" parent="1" vertex="1">
          <mxGeometry x="2458" y="-109" width="40" height="31" as="geometry" />
        </mxCell>
        <mxCell id="_8J3FFxgakrZv2_MzU__-222" style="edgeStyle=none;curved=1;rounded=0;orthogonalLoop=1;jettySize=auto;html=1;exitX=0.75;exitY=0;exitDx=0;exitDy=0;fontSize=12;startSize=8;endSize=8;" parent="1" edge="1">
          <mxGeometry relative="1" as="geometry">
            <mxPoint x="2767.25" y="-110" as="sourcePoint" />
            <mxPoint x="2767.25" y="-110" as="targetPoint" />
          </mxGeometry>
        </mxCell>
        <mxCell id="_8J3FFxgakrZv2_MzU__-223" value="start" style="rounded=1;whiteSpace=wrap;html=1;fontSize=16;" parent="1" vertex="1">
          <mxGeometry x="2615.25" y="-100" width="110" height="15" as="geometry" />
        </mxCell>
        <mxCell id="_8J3FFxgakrZv2_MzU__-224" style="edgeStyle=none;curved=1;rounded=0;orthogonalLoop=1;jettySize=auto;html=1;exitX=0.5;exitY=1;exitDx=0;exitDy=0;fontSize=12;startSize=8;endSize=8;" parent="1" source="_8J3FFxgakrZv2_MzU__-225" target="_8J3FFxgakrZv2_MzU__-237" edge="1">
          <mxGeometry relative="1" as="geometry" />
        </mxCell>
        <mxCell id="_8J3FFxgakrZv2_MzU__-225" value="len &amp;lt; 20" style="ellipse;whiteSpace=wrap;html=1;aspect=fixed;fontSize=16;" parent="1" vertex="1">
          <mxGeometry x="2631" y="159.5" width="80" height="80" as="geometry" />
        </mxCell>
        <mxCell id="_8J3FFxgakrZv2_MzU__-226" style="edgeStyle=elbowEdgeStyle;rounded=0;orthogonalLoop=1;jettySize=auto;html=1;exitX=0;exitY=0.5;exitDx=0;exitDy=0;fontSize=12;startSize=8;endSize=8;elbow=vertical;" parent="1" source="_8J3FFxgakrZv2_MzU__-227" target="_8J3FFxgakrZv2_MzU__-234" edge="1">
          <mxGeometry relative="1" as="geometry">
            <mxPoint x="2445" y="319.5" as="targetPoint" />
            <Array as="points">
              <mxPoint x="2517" y="163.5" />
            </Array>
          </mxGeometry>
        </mxCell>
        <mxCell id="_8J3FFxgakrZv2_MzU__-227" value="arry.push(number)" style="rounded=1;whiteSpace=wrap;html=1;fontSize=16;" parent="1" vertex="1">
          <mxGeometry x="2593.5" y="339.5" width="155" height="44" as="geometry" />
        </mxCell>
        <mxCell id="_8J3FFxgakrZv2_MzU__-228" style="edgeStyle=none;curved=1;rounded=0;orthogonalLoop=1;jettySize=auto;html=1;exitX=0.5;exitY=1;exitDx=0;exitDy=0;entryX=0.5;entryY=0;entryDx=0;entryDy=0;fontSize=12;startSize=8;endSize=8;" parent="1" source="_8J3FFxgakrZv2_MzU__-229" target="_8J3FFxgakrZv2_MzU__-246" edge="1">
          <mxGeometry relative="1" as="geometry" />
        </mxCell>
        <mxCell id="_8J3FFxgakrZv2_MzU__-229" value="start" style="rounded=1;whiteSpace=wrap;html=1;fontSize=16;" parent="1" vertex="1">
          <mxGeometry x="2615.25" y="-100" width="110" height="15" as="geometry" />
        </mxCell>
        <mxCell id="_8J3FFxgakrZv2_MzU__-230" style="edgeStyle=none;curved=1;rounded=0;orthogonalLoop=1;jettySize=auto;html=1;exitX=0.5;exitY=1;exitDx=0;exitDy=0;fontSize=12;startSize=8;endSize=8;" parent="1" source="_8J3FFxgakrZv2_MzU__-231" target="_8J3FFxgakrZv2_MzU__-232" edge="1">
          <mxGeometry relative="1" as="geometry" />
        </mxCell>
        <mxCell id="_8J3FFxgakrZv2_MzU__-231" value="arry[]" style="rounded=1;whiteSpace=wrap;html=1;fontSize=16;" parent="1" vertex="1">
          <mxGeometry x="2609.5" y="49.5" width="123" height="26" as="geometry" />
        </mxCell>
        <mxCell id="_8J3FFxgakrZv2_MzU__-232" value="len = arry.length" style="rounded=1;whiteSpace=wrap;html=1;fontSize=16;" parent="1" vertex="1">
          <mxGeometry x="2609.5" y="108.5" width="123" height="26" as="geometry" />
        </mxCell>
        <mxCell id="_8J3FFxgakrZv2_MzU__-233" style="edgeStyle=none;curved=1;rounded=0;orthogonalLoop=1;jettySize=auto;html=1;exitX=0.5;exitY=1;exitDx=0;exitDy=0;fontSize=12;startSize=8;endSize=8;" parent="1" source="_8J3FFxgakrZv2_MzU__-234" edge="1">
          <mxGeometry relative="1" as="geometry">
            <mxPoint x="2671" y="108.5" as="targetPoint" />
          </mxGeometry>
        </mxCell>
        <mxCell id="_8J3FFxgakrZv2_MzU__-234" value="arry[]" style="rounded=1;whiteSpace=wrap;html=1;fontSize=16;" parent="1" vertex="1">
          <mxGeometry x="2609.5" y="49.5" width="123" height="26" as="geometry" />
        </mxCell>
        <mxCell id="_8J3FFxgakrZv2_MzU__-235" style="edgeStyle=none;curved=1;rounded=0;orthogonalLoop=1;jettySize=auto;html=1;exitX=0.5;exitY=1;exitDx=0;exitDy=0;fontSize=12;startSize=8;endSize=8;" parent="1" target="_8J3FFxgakrZv2_MzU__-225" edge="1">
          <mxGeometry relative="1" as="geometry">
            <mxPoint x="2669.734693877551" y="165.5" as="targetPoint" />
            <mxPoint x="2671" y="134.5" as="sourcePoint" />
          </mxGeometry>
        </mxCell>
        <mxCell id="_8J3FFxgakrZv2_MzU__-236" style="edgeStyle=none;curved=1;rounded=0;orthogonalLoop=1;jettySize=auto;html=1;exitX=0.5;exitY=1;exitDx=0;exitDy=0;exitPerimeter=0;fontSize=12;startSize=8;endSize=8;" parent="1" source="_8J3FFxgakrZv2_MzU__-237" target="_8J3FFxgakrZv2_MzU__-227" edge="1">
          <mxGeometry relative="1" as="geometry" />
        </mxCell>
        <mxCell id="_8J3FFxgakrZv2_MzU__-237" value="number" style="shape=card;whiteSpace=wrap;html=1;fontSize=16;" parent="1" vertex="1">
          <mxGeometry x="2613.5" y="259.5" width="115" height="44" as="geometry" />
        </mxCell>
        <mxCell id="_8J3FFxgakrZv2_MzU__-240" value="" style="edgeStyle=none;curved=1;rounded=0;orthogonalLoop=1;jettySize=auto;html=1;fontSize=12;startSize=8;endSize=8;" parent="1" source="_8J3FFxgakrZv2_MzU__-227" target="_8J3FFxgakrZv2_MzU__-254" edge="1">
          <mxGeometry relative="1" as="geometry">
            <mxPoint x="2672.410565183818" y="451.5" as="sourcePoint" />
            <mxPoint x="2671" y="439.5" as="targetPoint" />
          </mxGeometry>
        </mxCell>
        <mxCell id="_8J3FFxgakrZv2_MzU__-243" style="edgeStyle=none;curved=1;rounded=0;orthogonalLoop=1;jettySize=auto;html=1;exitX=0.5;exitY=1;exitDx=0;exitDy=0;fontSize=12;startSize=8;endSize=8;" parent="1" source="_8J3FFxgakrZv2_MzU__-244" target="_8J3FFxgakrZv2_MzU__-234" edge="1">
          <mxGeometry relative="1" as="geometry" />
        </mxCell>
        <mxCell id="_8J3FFxgakrZv2_MzU__-244" value="arry2[]" style="rounded=1;whiteSpace=wrap;html=1;fontSize=16;" parent="1" vertex="1">
          <mxGeometry x="2608.75" y="-19" width="123" height="26" as="geometry" />
        </mxCell>
        <mxCell id="_8J3FFxgakrZv2_MzU__-245" style="edgeStyle=none;curved=1;rounded=0;orthogonalLoop=1;jettySize=auto;html=1;exitX=0.5;exitY=1;exitDx=0;exitDy=0;fontSize=12;startSize=8;endSize=8;" parent="1" source="_8J3FFxgakrZv2_MzU__-246" target="_8J3FFxgakrZv2_MzU__-244" edge="1">
          <mxGeometry relative="1" as="geometry" />
        </mxCell>
        <mxCell id="_8J3FFxgakrZv2_MzU__-246" value="arry1[]" style="rounded=1;whiteSpace=wrap;html=1;fontSize=16;" parent="1" vertex="1">
          <mxGeometry x="2608.75" y="-64" width="123" height="26" as="geometry" />
        </mxCell>
        <mxCell id="_8J3FFxgakrZv2_MzU__-251" style="edgeStyle=none;curved=1;rounded=0;orthogonalLoop=1;jettySize=auto;html=1;fontSize=12;startSize=8;endSize=8;entryX=0.5;entryY=0;entryDx=0;entryDy=0;exitX=0.5;exitY=0;exitDx=0;exitDy=0;" parent="1" source="_8J3FFxgakrZv2_MzU__-257" target="_8J3FFxgakrZv2_MzU__-253" edge="1">
          <mxGeometry relative="1" as="geometry">
            <mxPoint x="2681" y="650" as="sourcePoint" />
            <mxPoint x="2688" y="806" as="targetPoint" />
          </mxGeometry>
        </mxCell>
        <mxCell id="_8J3FFxgakrZv2_MzU__-253" value="stop" style="whiteSpace=wrap;html=1;fontSize=16;rounded=1;" parent="1" vertex="1">
          <mxGeometry x="2623.75" y="773" width="113" height="21" as="geometry" />
        </mxCell>
        <mxCell id="_8J3FFxgakrZv2_MzU__-256" style="edgeStyle=none;curved=1;rounded=0;orthogonalLoop=1;jettySize=auto;html=1;exitX=0.5;exitY=1;exitDx=0;exitDy=0;fontSize=12;startSize=8;endSize=8;" parent="1" source="_8J3FFxgakrZv2_MzU__-254" target="_8J3FFxgakrZv2_MzU__-255" edge="1">
          <mxGeometry relative="1" as="geometry" />
        </mxCell>
        <mxCell id="_8J3FFxgakrZv2_MzU__-254" value="arry1 = arry.slice(0, 11)" style="rounded=1;whiteSpace=wrap;html=1;fontSize=16;" parent="1" vertex="1">
          <mxGeometry x="2612.5" y="449.5" width="120" height="60" as="geometry" />
        </mxCell>
        <mxCell id="_8J3FFxgakrZv2_MzU__-260" style="edgeStyle=none;curved=1;rounded=0;orthogonalLoop=1;jettySize=auto;html=1;exitX=0.5;exitY=1;exitDx=0;exitDy=0;fontSize=12;startSize=8;endSize=8;" parent="1" source="_8J3FFxgakrZv2_MzU__-255" target="_8J3FFxgakrZv2_MzU__-257" edge="1">
          <mxGeometry relative="1" as="geometry" />
        </mxCell>
        <mxCell id="_8J3FFxgakrZv2_MzU__-255" value="arry2 = arry.slice(11)" style="rounded=1;whiteSpace=wrap;html=1;fontSize=16;" parent="1" vertex="1">
          <mxGeometry x="2615.25" y="548" width="120" height="60" as="geometry" />
        </mxCell>
        <mxCell id="_8J3FFxgakrZv2_MzU__-257" value="arry2 + arry1" style="shape=document;whiteSpace=wrap;html=1;boundedLbl=1;fontSize=16;" parent="1" vertex="1">
          <mxGeometry x="2619.25" y="658.5" width="120" height="80" as="geometry" />
        </mxCell>
        <mxCell id="_8J3FFxgakrZv2_MzU__-261" value="5.1" style="text;html=1;align=center;verticalAlign=middle;resizable=0;points=[];autosize=1;strokeColor=none;fillColor=none;fontSize=16;" parent="1" vertex="1">
          <mxGeometry x="217" y="1358" width="40" height="31" as="geometry" />
        </mxCell>
        <mxCell id="_8J3FFxgakrZv2_MzU__-262" style="edgeStyle=none;curved=1;rounded=0;orthogonalLoop=1;jettySize=auto;html=1;exitX=0.75;exitY=0;exitDx=0;exitDy=0;fontSize=12;startSize=8;endSize=8;" parent="1" edge="1">
          <mxGeometry relative="1" as="geometry">
            <mxPoint x="526.25" y="1357" as="sourcePoint" />
            <mxPoint x="526.25" y="1357" as="targetPoint" />
          </mxGeometry>
        </mxCell>
        <mxCell id="_8J3FFxgakrZv2_MzU__-263" style="edgeStyle=none;curved=1;rounded=0;orthogonalLoop=1;jettySize=auto;html=1;exitX=0.5;exitY=1;exitDx=0;exitDy=0;fontSize=12;startSize=8;endSize=8;" parent="1" source="_8J3FFxgakrZv2_MzU__-264" edge="1">
          <mxGeometry relative="1" as="geometry">
            <mxPoint x="429" y="1431" as="targetPoint" />
          </mxGeometry>
        </mxCell>
        <mxCell id="_8J3FFxgakrZv2_MzU__-264" value="start" style="rounded=1;whiteSpace=wrap;html=1;fontSize=16;" parent="1" vertex="1">
          <mxGeometry x="374.25" y="1367" width="110" height="15" as="geometry" />
        </mxCell>
        <mxCell id="_8J3FFxgakrZv2_MzU__-265" style="edgeStyle=none;curved=1;rounded=0;orthogonalLoop=1;jettySize=auto;html=1;exitX=0.5;exitY=1;exitDx=0;exitDy=0;fontSize=12;startSize=8;endSize=8;" parent="1" source="_8J3FFxgakrZv2_MzU__-266" target="_8J3FFxgakrZv2_MzU__-277" edge="1">
          <mxGeometry relative="1" as="geometry" />
        </mxCell>
        <mxCell id="_8J3FFxgakrZv2_MzU__-266" value="len &amp;lt; 60" style="ellipse;whiteSpace=wrap;html=1;aspect=fixed;fontSize=16;" parent="1" vertex="1">
          <mxGeometry x="386" y="1661" width="80" height="80" as="geometry" />
        </mxCell>
        <mxCell id="_8J3FFxgakrZv2_MzU__-267" style="edgeStyle=elbowEdgeStyle;rounded=0;orthogonalLoop=1;jettySize=auto;html=1;exitX=0;exitY=0.5;exitDx=0;exitDy=0;fontSize=12;startSize=8;endSize=8;elbow=vertical;" parent="1" source="_8J3FFxgakrZv2_MzU__-268" target="_8J3FFxgakrZv2_MzU__-274" edge="1">
          <mxGeometry relative="1" as="geometry">
            <mxPoint x="200" y="1821" as="targetPoint" />
            <Array as="points">
              <mxPoint x="272" y="1665" />
            </Array>
          </mxGeometry>
        </mxCell>
        <mxCell id="_8J3FFxgakrZv2_MzU__-279" style="edgeStyle=none;curved=1;rounded=0;orthogonalLoop=1;jettySize=auto;html=1;exitX=0.5;exitY=1;exitDx=0;exitDy=0;fontSize=12;startSize=8;endSize=8;" parent="1" source="_8J3FFxgakrZv2_MzU__-268" target="_8J3FFxgakrZv2_MzU__-278" edge="1">
          <mxGeometry relative="1" as="geometry" />
        </mxCell>
        <mxCell id="_8J3FFxgakrZv2_MzU__-268" value="arry.push(number)" style="rounded=1;whiteSpace=wrap;html=1;fontSize=16;" parent="1" vertex="1">
          <mxGeometry x="348.5" y="1841" width="155" height="44" as="geometry" />
        </mxCell>
        <mxCell id="_8J3FFxgakrZv2_MzU__-269" value="start" style="rounded=1;whiteSpace=wrap;html=1;fontSize=16;" parent="1" vertex="1">
          <mxGeometry x="374.25" y="1352" width="110" height="30" as="geometry" />
        </mxCell>
        <mxCell id="_8J3FFxgakrZv2_MzU__-270" style="edgeStyle=none;curved=1;rounded=0;orthogonalLoop=1;jettySize=auto;html=1;exitX=0.5;exitY=1;exitDx=0;exitDy=0;fontSize=12;startSize=8;endSize=8;" parent="1" source="_8J3FFxgakrZv2_MzU__-271" target="_8J3FFxgakrZv2_MzU__-272" edge="1">
          <mxGeometry relative="1" as="geometry" />
        </mxCell>
        <mxCell id="_8J3FFxgakrZv2_MzU__-271" value="arry[]" style="rounded=1;whiteSpace=wrap;html=1;fontSize=16;" parent="1" vertex="1">
          <mxGeometry x="364.5" y="1551" width="123" height="26" as="geometry" />
        </mxCell>
        <mxCell id="_8J3FFxgakrZv2_MzU__-272" value="len = arry.length" style="rounded=1;whiteSpace=wrap;html=1;fontSize=16;" parent="1" vertex="1">
          <mxGeometry x="364.5" y="1610" width="123" height="26" as="geometry" />
        </mxCell>
        <mxCell id="_8J3FFxgakrZv2_MzU__-273" style="edgeStyle=none;curved=1;rounded=0;orthogonalLoop=1;jettySize=auto;html=1;exitX=0.5;exitY=1;exitDx=0;exitDy=0;fontSize=12;startSize=8;endSize=8;" parent="1" source="_8J3FFxgakrZv2_MzU__-274" edge="1">
          <mxGeometry relative="1" as="geometry">
            <mxPoint x="426" y="1610" as="targetPoint" />
          </mxGeometry>
        </mxCell>
        <mxCell id="_8J3FFxgakrZv2_MzU__-274" value="arry[]" style="rounded=1;whiteSpace=wrap;html=1;fontSize=16;" parent="1" vertex="1">
          <mxGeometry x="364.5" y="1551" width="123" height="26" as="geometry" />
        </mxCell>
        <mxCell id="_8J3FFxgakrZv2_MzU__-275" style="edgeStyle=none;curved=1;rounded=0;orthogonalLoop=1;jettySize=auto;html=1;exitX=0.5;exitY=1;exitDx=0;exitDy=0;fontSize=12;startSize=8;endSize=8;" parent="1" target="_8J3FFxgakrZv2_MzU__-266" edge="1">
          <mxGeometry relative="1" as="geometry">
            <mxPoint x="424.7346938775511" y="1667" as="targetPoint" />
            <mxPoint x="426" y="1636" as="sourcePoint" />
          </mxGeometry>
        </mxCell>
        <mxCell id="_8J3FFxgakrZv2_MzU__-276" style="edgeStyle=none;curved=1;rounded=0;orthogonalLoop=1;jettySize=auto;html=1;exitX=0.5;exitY=1;exitDx=0;exitDy=0;exitPerimeter=0;fontSize=12;startSize=8;endSize=8;" parent="1" source="_8J3FFxgakrZv2_MzU__-277" target="_8J3FFxgakrZv2_MzU__-268" edge="1">
          <mxGeometry relative="1" as="geometry" />
        </mxCell>
        <mxCell id="_8J3FFxgakrZv2_MzU__-277" value="number" style="shape=card;whiteSpace=wrap;html=1;fontSize=16;" parent="1" vertex="1">
          <mxGeometry x="368.5" y="1761" width="115" height="44" as="geometry" />
        </mxCell>
        <mxCell id="_8J3FFxgakrZv2_MzU__-281" value="" style="edgeStyle=none;curved=1;rounded=0;orthogonalLoop=1;jettySize=auto;html=1;fontSize=12;startSize=8;endSize=8;" parent="1" source="_8J3FFxgakrZv2_MzU__-278" target="_8J3FFxgakrZv2_MzU__-286" edge="1">
          <mxGeometry relative="1" as="geometry">
            <mxPoint x="428.82299576641344" y="2070.073314965392" as="targetPoint" />
          </mxGeometry>
        </mxCell>
        <mxCell id="_8J3FFxgakrZv2_MzU__-278" value="i = 0&lt;br&gt;i &amp;lt;= len&lt;br&gt;i ++" style="ellipse;whiteSpace=wrap;html=1;fontSize=16;rounded=1;" parent="1" vertex="1">
          <mxGeometry x="381.5" y="1928" width="89" height="98" as="geometry" />
        </mxCell>
        <mxCell id="_8J3FFxgakrZv2_MzU__-285" style="edgeStyle=none;curved=1;rounded=0;orthogonalLoop=1;jettySize=auto;html=1;exitX=0.5;exitY=1;exitDx=0;exitDy=0;entryX=0.5;entryY=0;entryDx=0;entryDy=0;fontSize=12;startSize=8;endSize=8;" parent="1" source="_8J3FFxgakrZv2_MzU__-282" target="_8J3FFxgakrZv2_MzU__-274" edge="1">
          <mxGeometry relative="1" as="geometry" />
        </mxCell>
        <mxCell id="_8J3FFxgakrZv2_MzU__-282" value="arry2[]" style="rounded=1;whiteSpace=wrap;html=1;fontSize=16;" parent="1" vertex="1">
          <mxGeometry x="367.75" y="1492" width="123" height="26" as="geometry" />
        </mxCell>
        <mxCell id="_8J3FFxgakrZv2_MzU__-284" style="edgeStyle=none;curved=1;rounded=0;orthogonalLoop=1;jettySize=auto;html=1;exitX=0.5;exitY=1;exitDx=0;exitDy=0;fontSize=12;startSize=8;endSize=8;" parent="1" source="_8J3FFxgakrZv2_MzU__-283" target="_8J3FFxgakrZv2_MzU__-282" edge="1">
          <mxGeometry relative="1" as="geometry" />
        </mxCell>
        <mxCell id="_8J3FFxgakrZv2_MzU__-283" value="arry1[]" style="rounded=1;whiteSpace=wrap;html=1;fontSize=16;" parent="1" vertex="1">
          <mxGeometry x="367.75" y="1430" width="123" height="26" as="geometry" />
        </mxCell>
        <mxCell id="_8J3FFxgakrZv2_MzU__-288" style="edgeStyle=none;curved=1;rounded=0;orthogonalLoop=1;jettySize=auto;html=1;exitX=0.5;exitY=1;exitDx=0;exitDy=0;entryX=0.5;entryY=0;entryDx=0;entryDy=0;fontSize=12;startSize=8;endSize=8;" parent="1" source="_8J3FFxgakrZv2_MzU__-286" target="_8J3FFxgakrZv2_MzU__-287" edge="1">
          <mxGeometry relative="1" as="geometry" />
        </mxCell>
        <mxCell id="_8J3FFxgakrZv2_MzU__-290" style="edgeStyle=none;curved=1;rounded=0;orthogonalLoop=1;jettySize=auto;html=1;exitX=1;exitY=0.5;exitDx=0;exitDy=0;entryX=0;entryY=0.5;entryDx=0;entryDy=0;fontSize=12;startSize=8;endSize=8;" parent="1" source="_8J3FFxgakrZv2_MzU__-286" target="_8J3FFxgakrZv2_MzU__-289" edge="1">
          <mxGeometry relative="1" as="geometry" />
        </mxCell>
        <mxCell id="_8J3FFxgakrZv2_MzU__-286" value="arry[i] === 0" style="rhombus;whiteSpace=wrap;html=1;fontSize=16;" parent="1" vertex="1">
          <mxGeometry x="343.5" y="2069" width="167" height="64" as="geometry" />
        </mxCell>
        <mxCell id="_8J3FFxgakrZv2_MzU__-292" style="edgeStyle=none;curved=1;rounded=0;orthogonalLoop=1;jettySize=auto;html=1;exitX=0.5;exitY=1;exitDx=0;exitDy=0;fontSize=12;startSize=8;endSize=8;" parent="1" source="_8J3FFxgakrZv2_MzU__-287" target="_8J3FFxgakrZv2_MzU__-291" edge="1">
          <mxGeometry relative="1" as="geometry" />
        </mxCell>
        <mxCell id="_8J3FFxgakrZv2_MzU__-287" value="arry1.push(arry[i])" style="rounded=1;whiteSpace=wrap;html=1;fontSize=16;" parent="1" vertex="1">
          <mxGeometry x="351" y="2164" width="155" height="44" as="geometry" />
        </mxCell>
        <mxCell id="_8J3FFxgakrZv2_MzU__-293" style="edgeStyle=orthogonalEdgeStyle;rounded=0;orthogonalLoop=1;jettySize=auto;html=1;exitX=0.5;exitY=1;exitDx=0;exitDy=0;entryX=1;entryY=0.5;entryDx=0;entryDy=0;fontSize=12;startSize=8;endSize=8;" parent="1" source="_8J3FFxgakrZv2_MzU__-289" target="_8J3FFxgakrZv2_MzU__-291" edge="1">
          <mxGeometry relative="1" as="geometry" />
        </mxCell>
        <mxCell id="_8J3FFxgakrZv2_MzU__-289" value="arry2.push(arry[i])" style="rounded=1;whiteSpace=wrap;html=1;fontSize=16;" parent="1" vertex="1">
          <mxGeometry x="549" y="2079" width="155" height="44" as="geometry" />
        </mxCell>
        <mxCell id="_8J3FFxgakrZv2_MzU__-295" style="edgeStyle=none;curved=1;rounded=0;orthogonalLoop=1;jettySize=auto;html=1;exitX=0.5;exitY=0;exitDx=0;exitDy=0;entryX=0.5;entryY=0;entryDx=0;entryDy=0;fontSize=12;startSize=8;endSize=8;" parent="1" source="_8J3FFxgakrZv2_MzU__-291" target="_8J3FFxgakrZv2_MzU__-294" edge="1">
          <mxGeometry relative="1" as="geometry" />
        </mxCell>
        <mxCell id="_8J3FFxgakrZv2_MzU__-291" value="arry1 + arry2" style="shape=document;whiteSpace=wrap;html=1;boundedLbl=1;fontSize=16;" parent="1" vertex="1">
          <mxGeometry x="370.75" y="2287" width="120" height="80" as="geometry" />
        </mxCell>
        <mxCell id="_8J3FFxgakrZv2_MzU__-294" value="stop" style="whiteSpace=wrap;html=1;fontSize=16;rounded=1;" parent="1" vertex="1">
          <mxGeometry x="372" y="2418" width="113" height="21" as="geometry" />
        </mxCell>
        <mxCell id="_8J3FFxgakrZv2_MzU__-296" value="5.2" style="text;html=1;align=center;verticalAlign=middle;resizable=0;points=[];autosize=1;strokeColor=none;fillColor=none;fontSize=16;" parent="1" vertex="1">
          <mxGeometry x="758" y="1347" width="40" height="31" as="geometry" />
        </mxCell>
        <mxCell id="_8J3FFxgakrZv2_MzU__-299" value="" style="edgeStyle=none;curved=1;rounded=0;orthogonalLoop=1;jettySize=auto;html=1;fontSize=12;startSize=8;endSize=8;" parent="1" source="_8J3FFxgakrZv2_MzU__-297" target="_8J3FFxgakrZv2_MzU__-321" edge="1">
          <mxGeometry relative="1" as="geometry">
            <mxPoint x="923" y="1439.5" as="targetPoint" />
          </mxGeometry>
        </mxCell>
        <mxCell id="_8J3FFxgakrZv2_MzU__-297" value="start" style="rounded=1;whiteSpace=wrap;html=1;fontSize=16;" parent="1" vertex="1">
          <mxGeometry x="868" y="1347.5" width="110" height="30" as="geometry" />
        </mxCell>
        <mxCell id="_8J3FFxgakrZv2_MzU__-313" style="edgeStyle=none;curved=1;rounded=0;orthogonalLoop=1;jettySize=auto;html=1;exitX=0.5;exitY=1;exitDx=0;exitDy=0;fontSize=12;startSize=8;endSize=8;" parent="1" source="_8J3FFxgakrZv2_MzU__-314" target="_8J3FFxgakrZv2_MzU__-324" edge="1">
          <mxGeometry relative="1" as="geometry" />
        </mxCell>
        <mxCell id="_8J3FFxgakrZv2_MzU__-314" value="len &amp;lt; 60" style="ellipse;whiteSpace=wrap;html=1;aspect=fixed;fontSize=16;" parent="1" vertex="1">
          <mxGeometry x="886" y="1569" width="80" height="80" as="geometry" />
        </mxCell>
        <mxCell id="_8J3FFxgakrZv2_MzU__-315" style="edgeStyle=elbowEdgeStyle;rounded=0;orthogonalLoop=1;jettySize=auto;html=1;exitX=0;exitY=0.5;exitDx=0;exitDy=0;fontSize=12;startSize=8;endSize=8;elbow=vertical;" parent="1" source="_8J3FFxgakrZv2_MzU__-316" target="_8J3FFxgakrZv2_MzU__-321" edge="1">
          <mxGeometry relative="1" as="geometry">
            <mxPoint x="700" y="1729" as="targetPoint" />
            <Array as="points">
              <mxPoint x="772" y="1573" />
            </Array>
          </mxGeometry>
        </mxCell>
        <mxCell id="_8J3FFxgakrZv2_MzU__-327" style="edgeStyle=none;curved=1;rounded=0;orthogonalLoop=1;jettySize=auto;html=1;exitX=0.5;exitY=1;exitDx=0;exitDy=0;fontSize=12;startSize=8;endSize=8;" parent="1" source="_8J3FFxgakrZv2_MzU__-316" target="_8J3FFxgakrZv2_MzU__-326" edge="1">
          <mxGeometry relative="1" as="geometry" />
        </mxCell>
        <mxCell id="_8J3FFxgakrZv2_MzU__-316" value="arry.push(number)" style="rounded=1;whiteSpace=wrap;html=1;fontSize=16;" parent="1" vertex="1">
          <mxGeometry x="848.5" y="1749" width="155" height="44" as="geometry" />
        </mxCell>
        <mxCell id="_8J3FFxgakrZv2_MzU__-317" style="edgeStyle=none;curved=1;rounded=0;orthogonalLoop=1;jettySize=auto;html=1;exitX=0.5;exitY=1;exitDx=0;exitDy=0;fontSize=12;startSize=8;endSize=8;" parent="1" source="_8J3FFxgakrZv2_MzU__-318" target="_8J3FFxgakrZv2_MzU__-319" edge="1">
          <mxGeometry relative="1" as="geometry" />
        </mxCell>
        <mxCell id="_8J3FFxgakrZv2_MzU__-318" value="arry[]" style="rounded=1;whiteSpace=wrap;html=1;fontSize=16;" parent="1" vertex="1">
          <mxGeometry x="864.5" y="1459" width="123" height="26" as="geometry" />
        </mxCell>
        <mxCell id="_8J3FFxgakrZv2_MzU__-319" value="len = arry.length" style="rounded=1;whiteSpace=wrap;html=1;fontSize=16;" parent="1" vertex="1">
          <mxGeometry x="864.5" y="1518" width="123" height="26" as="geometry" />
        </mxCell>
        <mxCell id="_8J3FFxgakrZv2_MzU__-320" style="edgeStyle=none;curved=1;rounded=0;orthogonalLoop=1;jettySize=auto;html=1;exitX=0.5;exitY=1;exitDx=0;exitDy=0;fontSize=12;startSize=8;endSize=8;" parent="1" source="_8J3FFxgakrZv2_MzU__-321" edge="1">
          <mxGeometry relative="1" as="geometry">
            <mxPoint x="926" y="1518" as="targetPoint" />
          </mxGeometry>
        </mxCell>
        <mxCell id="_8J3FFxgakrZv2_MzU__-321" value="arry[]" style="rounded=1;whiteSpace=wrap;html=1;fontSize=16;" parent="1" vertex="1">
          <mxGeometry x="864.5" y="1459" width="123" height="26" as="geometry" />
        </mxCell>
        <mxCell id="_8J3FFxgakrZv2_MzU__-322" style="edgeStyle=none;curved=1;rounded=0;orthogonalLoop=1;jettySize=auto;html=1;exitX=0.5;exitY=1;exitDx=0;exitDy=0;fontSize=12;startSize=8;endSize=8;" parent="1" target="_8J3FFxgakrZv2_MzU__-314" edge="1">
          <mxGeometry relative="1" as="geometry">
            <mxPoint x="924.7346938775511" y="1575" as="targetPoint" />
            <mxPoint x="926" y="1544" as="sourcePoint" />
          </mxGeometry>
        </mxCell>
        <mxCell id="_8J3FFxgakrZv2_MzU__-323" style="edgeStyle=none;curved=1;rounded=0;orthogonalLoop=1;jettySize=auto;html=1;exitX=0.5;exitY=1;exitDx=0;exitDy=0;exitPerimeter=0;fontSize=12;startSize=8;endSize=8;" parent="1" source="_8J3FFxgakrZv2_MzU__-324" target="_8J3FFxgakrZv2_MzU__-316" edge="1">
          <mxGeometry relative="1" as="geometry" />
        </mxCell>
        <mxCell id="_8J3FFxgakrZv2_MzU__-324" value="number" style="shape=card;whiteSpace=wrap;html=1;fontSize=16;" parent="1" vertex="1">
          <mxGeometry x="868.5" y="1669" width="115" height="44" as="geometry" />
        </mxCell>
        <mxCell id="_8J3FFxgakrZv2_MzU__-329" style="edgeStyle=none;curved=1;rounded=0;orthogonalLoop=1;jettySize=auto;html=1;exitX=0.5;exitY=1;exitDx=0;exitDy=0;fontSize=12;startSize=8;endSize=8;" parent="1" source="_8J3FFxgakrZv2_MzU__-326" target="_8J3FFxgakrZv2_MzU__-328" edge="1">
          <mxGeometry relative="1" as="geometry" />
        </mxCell>
        <mxCell id="_8J3FFxgakrZv2_MzU__-326" value="arry1 = arry.filter(i =&amp;gt; i % 2 === 0)" style="rounded=1;whiteSpace=wrap;html=1;fontSize=16;" parent="1" vertex="1">
          <mxGeometry x="804" y="1825" width="240" height="60" as="geometry" />
        </mxCell>
        <mxCell id="_8J3FFxgakrZv2_MzU__-331" style="edgeStyle=none;curved=1;rounded=0;orthogonalLoop=1;jettySize=auto;html=1;exitX=0.5;exitY=1;exitDx=0;exitDy=0;entryX=0.5;entryY=0;entryDx=0;entryDy=0;fontSize=12;startSize=8;endSize=8;" parent="1" source="_8J3FFxgakrZv2_MzU__-328" target="_8J3FFxgakrZv2_MzU__-330" edge="1">
          <mxGeometry relative="1" as="geometry" />
        </mxCell>
        <mxCell id="_8J3FFxgakrZv2_MzU__-328" value="arry2 = arry.filter(i =&amp;gt; i % 2 !== 0)" style="rounded=1;whiteSpace=wrap;html=1;fontSize=16;" parent="1" vertex="1">
          <mxGeometry x="806" y="1917" width="240" height="60" as="geometry" />
        </mxCell>
        <mxCell id="_8J3FFxgakrZv2_MzU__-333" style="edgeStyle=none;curved=1;rounded=0;orthogonalLoop=1;jettySize=auto;html=1;exitX=0.5;exitY=0;exitDx=0;exitDy=0;fontSize=12;startSize=8;endSize=8;" parent="1" source="_8J3FFxgakrZv2_MzU__-330" target="_8J3FFxgakrZv2_MzU__-332" edge="1">
          <mxGeometry relative="1" as="geometry" />
        </mxCell>
        <mxCell id="_8J3FFxgakrZv2_MzU__-330" value="arry1 + arry2" style="shape=document;whiteSpace=wrap;html=1;boundedLbl=1;fontSize=16;" parent="1" vertex="1">
          <mxGeometry x="866" y="2009" width="120" height="80" as="geometry" />
        </mxCell>
        <mxCell id="_8J3FFxgakrZv2_MzU__-332" value="stop" style="whiteSpace=wrap;html=1;fontSize=16;rounded=1;" parent="1" vertex="1">
          <mxGeometry x="869.5" y="2121" width="113" height="25" as="geometry" />
        </mxCell>
        <mxCell id="kk7fCv5FlfGF7tGa9pOw-1" value="&lt;br&gt;arry.length = 1 =len&lt;br&gt;5&lt;br&gt;arry[2, 5]" style="text;html=1;align=left;verticalAlign=middle;resizable=0;points=[];autosize=1;strokeColor=none;fillColor=none;fontSize=16;" vertex="1" parent="1">
          <mxGeometry x="622" y="-53" width="155" height="89" as="geometry" />
        </mxCell>
        <mxCell id="kk7fCv5FlfGF7tGa9pOw-26" style="edgeStyle=none;curved=1;rounded=0;orthogonalLoop=1;jettySize=auto;html=1;exitX=0.5;exitY=1;exitDx=0;exitDy=0;fontSize=12;startSize=8;endSize=8;" edge="1" parent="1" source="kk7fCv5FlfGF7tGa9pOw-27" target="kk7fCv5FlfGF7tGa9pOw-38">
          <mxGeometry relative="1" as="geometry">
            <mxPoint x="435" y="-62" as="targetPoint" />
          </mxGeometry>
        </mxCell>
        <mxCell id="kk7fCv5FlfGF7tGa9pOw-27" value="start" style="rounded=1;whiteSpace=wrap;html=1;fontSize=16;" vertex="1" parent="1">
          <mxGeometry x="382" y="-109" width="110" height="15" as="geometry" />
        </mxCell>
        <mxCell id="kk7fCv5FlfGF7tGa9pOw-28" style="edgeStyle=none;curved=1;rounded=0;orthogonalLoop=1;jettySize=auto;html=1;exitX=0.5;exitY=1;exitDx=0;exitDy=0;fontSize=12;startSize=8;endSize=8;" edge="1" parent="1" source="kk7fCv5FlfGF7tGa9pOw-29" target="kk7fCv5FlfGF7tGa9pOw-42">
          <mxGeometry relative="1" as="geometry" />
        </mxCell>
        <mxCell id="kk7fCv5FlfGF7tGa9pOw-29" value="i = 0&lt;br&gt;i &amp;lt; len&lt;br&gt;i++" style="ellipse;whiteSpace=wrap;html=1;aspect=fixed;fontSize=16;" vertex="1" parent="1">
          <mxGeometry x="397" y="144" width="80" height="80" as="geometry" />
        </mxCell>
        <mxCell id="kk7fCv5FlfGF7tGa9pOw-30" style="edgeStyle=elbowEdgeStyle;rounded=0;orthogonalLoop=1;jettySize=auto;html=1;exitX=0;exitY=0.5;exitDx=0;exitDy=0;fontSize=12;startSize=8;endSize=8;elbow=vertical;" edge="1" parent="1" source="kk7fCv5FlfGF7tGa9pOw-32" target="kk7fCv5FlfGF7tGa9pOw-38">
          <mxGeometry relative="1" as="geometry">
            <mxPoint x="211" y="216" as="targetPoint" />
            <Array as="points">
              <mxPoint x="283" y="60" />
            </Array>
          </mxGeometry>
        </mxCell>
        <mxCell id="kk7fCv5FlfGF7tGa9pOw-31" value="" style="edgeStyle=none;curved=1;rounded=0;orthogonalLoop=1;jettySize=auto;html=1;fontSize=12;startSize=8;endSize=8;entryX=0.5;entryY=0;entryDx=0;entryDy=0;" edge="1" parent="1" source="kk7fCv5FlfGF7tGa9pOw-32" target="kk7fCv5FlfGF7tGa9pOw-48">
          <mxGeometry relative="1" as="geometry">
            <mxPoint x="437" y="401" as="targetPoint" />
          </mxGeometry>
        </mxCell>
        <mxCell id="kk7fCv5FlfGF7tGa9pOw-32" value="arry.push(number)&lt;br&gt;&amp;amp;&amp;amp;&lt;br&gt;sum += number" style="rounded=1;whiteSpace=wrap;html=1;fontSize=16;" vertex="1" parent="1">
          <mxGeometry x="359.5" y="324" width="159.5" height="61" as="geometry" />
        </mxCell>
        <mxCell id="kk7fCv5FlfGF7tGa9pOw-33" value="start" style="rounded=1;whiteSpace=wrap;html=1;fontSize=16;" vertex="1" parent="1">
          <mxGeometry x="382" y="-109" width="110" height="15" as="geometry" />
        </mxCell>
        <mxCell id="kk7fCv5FlfGF7tGa9pOw-34" style="edgeStyle=none;curved=1;rounded=0;orthogonalLoop=1;jettySize=auto;html=1;exitX=0.5;exitY=1;exitDx=0;exitDy=0;fontSize=12;startSize=8;endSize=8;" edge="1" parent="1" source="kk7fCv5FlfGF7tGa9pOw-35" target="kk7fCv5FlfGF7tGa9pOw-36">
          <mxGeometry relative="1" as="geometry" />
        </mxCell>
        <mxCell id="kk7fCv5FlfGF7tGa9pOw-35" value="arry[]" style="rounded=1;whiteSpace=wrap;html=1;fontSize=16;" vertex="1" parent="1">
          <mxGeometry x="375.5" y="-54" width="123" height="26" as="geometry" />
        </mxCell>
        <mxCell id="kk7fCv5FlfGF7tGa9pOw-36" value="len = arry.length" style="rounded=1;whiteSpace=wrap;html=1;fontSize=16;" vertex="1" parent="1">
          <mxGeometry x="375.5" y="5" width="123" height="26" as="geometry" />
        </mxCell>
        <mxCell id="kk7fCv5FlfGF7tGa9pOw-37" style="edgeStyle=none;curved=1;rounded=0;orthogonalLoop=1;jettySize=auto;html=1;exitX=0.75;exitY=0;exitDx=0;exitDy=0;fontSize=12;startSize=8;endSize=8;" edge="1" parent="1" source="kk7fCv5FlfGF7tGa9pOw-36" target="kk7fCv5FlfGF7tGa9pOw-40">
          <mxGeometry relative="1" as="geometry" />
        </mxCell>
        <mxCell id="kk7fCv5FlfGF7tGa9pOw-38" value="arry[]" style="rounded=1;whiteSpace=wrap;html=1;fontSize=16;" vertex="1" parent="1">
          <mxGeometry x="375.5" y="-54" width="123" height="26" as="geometry" />
        </mxCell>
        <mxCell id="kk7fCv5FlfGF7tGa9pOw-39" style="edgeStyle=none;curved=1;rounded=0;orthogonalLoop=1;jettySize=auto;html=1;exitX=0.5;exitY=1;exitDx=0;exitDy=0;fontSize=12;startSize=8;endSize=8;" edge="1" parent="1" target="kk7fCv5FlfGF7tGa9pOw-45">
          <mxGeometry relative="1" as="geometry">
            <mxPoint x="437" y="80" as="targetPoint" />
            <mxPoint x="437" y="-33" as="sourcePoint" />
          </mxGeometry>
        </mxCell>
        <mxCell id="kk7fCv5FlfGF7tGa9pOw-40" value="len = arry.length" style="rounded=1;whiteSpace=wrap;html=1;fontSize=16;" vertex="1" parent="1">
          <mxGeometry x="375.5" y="5" width="123" height="26" as="geometry" />
        </mxCell>
        <mxCell id="kk7fCv5FlfGF7tGa9pOw-41" style="edgeStyle=none;curved=1;rounded=0;orthogonalLoop=1;jettySize=auto;html=1;exitX=0.5;exitY=1;exitDx=0;exitDy=0;exitPerimeter=0;fontSize=12;startSize=8;endSize=8;" edge="1" parent="1" source="kk7fCv5FlfGF7tGa9pOw-42" target="kk7fCv5FlfGF7tGa9pOw-32">
          <mxGeometry relative="1" as="geometry" />
        </mxCell>
        <mxCell id="kk7fCv5FlfGF7tGa9pOw-42" value="number" style="shape=card;whiteSpace=wrap;html=1;fontSize=16;" vertex="1" parent="1">
          <mxGeometry x="379.5" y="244" width="115" height="44" as="geometry" />
        </mxCell>
        <mxCell id="kk7fCv5FlfGF7tGa9pOw-44" value="1" style="text;html=1;align=center;verticalAlign=middle;resizable=0;points=[];autosize=1;strokeColor=none;fillColor=none;fontSize=16;" vertex="1" parent="1">
          <mxGeometry x="224" y="-108" width="27" height="31" as="geometry" />
        </mxCell>
        <mxCell id="kk7fCv5FlfGF7tGa9pOw-46" style="edgeStyle=orthogonalEdgeStyle;rounded=0;orthogonalLoop=1;jettySize=auto;html=1;exitX=0.5;exitY=1;exitDx=0;exitDy=0;" edge="1" parent="1" source="kk7fCv5FlfGF7tGa9pOw-45" target="kk7fCv5FlfGF7tGa9pOw-29">
          <mxGeometry relative="1" as="geometry" />
        </mxCell>
        <mxCell id="kk7fCv5FlfGF7tGa9pOw-45" value="sum = 0" style="rounded=1;whiteSpace=wrap;html=1;fontSize=16;" vertex="1" parent="1">
          <mxGeometry x="403" y="80" width="68" height="31" as="geometry" />
        </mxCell>
        <mxCell id="kk7fCv5FlfGF7tGa9pOw-47" value="" style="edgeStyle=none;curved=1;rounded=0;orthogonalLoop=1;jettySize=auto;html=1;fontSize=12;startSize=8;endSize=8;" edge="1" parent="1" source="kk7fCv5FlfGF7tGa9pOw-48" target="kk7fCv5FlfGF7tGa9pOw-50">
          <mxGeometry relative="1" as="geometry" />
        </mxCell>
        <mxCell id="kk7fCv5FlfGF7tGa9pOw-48" value="&amp;nbsp;average&amp;nbsp;&lt;span style=&quot;background-color: initial;&quot;&gt;= sum / len&lt;/span&gt;" style="rounded=1;whiteSpace=wrap;html=1;fontSize=16;" vertex="1" parent="1">
          <mxGeometry x="350" y="409" width="178" height="28" as="geometry" />
        </mxCell>
        <mxCell id="kk7fCv5FlfGF7tGa9pOw-49" value="" style="edgeStyle=none;curved=1;rounded=0;orthogonalLoop=1;jettySize=auto;html=1;fontSize=12;startSize=8;endSize=8;exitX=0.5;exitY=0;exitDx=0;exitDy=0;entryX=0.5;entryY=0;entryDx=0;entryDy=0;" edge="1" parent="1" source="kk7fCv5FlfGF7tGa9pOw-50" target="kk7fCv5FlfGF7tGa9pOw-52">
          <mxGeometry relative="1" as="geometry">
            <mxPoint x="437.03911650583564" y="591.0016018288829" as="targetPoint" />
          </mxGeometry>
        </mxCell>
        <mxCell id="kk7fCv5FlfGF7tGa9pOw-50" value="average" style="shape=document;whiteSpace=wrap;html=1;boundedLbl=1;fontSize=16;rounded=1;" vertex="1" parent="1">
          <mxGeometry x="379" y="499" width="120" height="80" as="geometry" />
        </mxCell>
        <mxCell id="kk7fCv5FlfGF7tGa9pOw-51" value="" style="edgeStyle=none;curved=1;rounded=0;orthogonalLoop=1;jettySize=auto;html=1;fontSize=12;startSize=8;endSize=8;" edge="1" parent="1" source="kk7fCv5FlfGF7tGa9pOw-52" target="kk7fCv5FlfGF7tGa9pOw-54">
          <mxGeometry relative="1" as="geometry" />
        </mxCell>
        <mxCell id="kk7fCv5FlfGF7tGa9pOw-52" value="i = 0&lt;br&gt;i &amp;lt; len&lt;br&gt;i ++" style="ellipse;whiteSpace=wrap;html=1;fontSize=16;rounded=1;" vertex="1" parent="1">
          <mxGeometry x="394.5" y="599" width="89" height="98" as="geometry" />
        </mxCell>
        <mxCell id="kk7fCv5FlfGF7tGa9pOw-53" value="" style="edgeStyle=none;curved=1;rounded=0;orthogonalLoop=1;jettySize=auto;html=1;fontSize=12;startSize=8;endSize=8;" edge="1" parent="1" source="kk7fCv5FlfGF7tGa9pOw-54" target="kk7fCv5FlfGF7tGa9pOw-56">
          <mxGeometry relative="1" as="geometry" />
        </mxCell>
        <mxCell id="kk7fCv5FlfGF7tGa9pOw-54" value="arry[i] &amp;gt; average" style="rhombus;whiteSpace=wrap;html=1;fontSize=16;rounded=1;" vertex="1" parent="1">
          <mxGeometry x="344.5" y="743" width="189" height="81" as="geometry" />
        </mxCell>
        <mxCell id="kk7fCv5FlfGF7tGa9pOw-55" value="" style="edgeStyle=none;curved=1;rounded=0;orthogonalLoop=1;jettySize=auto;html=1;fontSize=12;startSize=8;endSize=8;exitX=0.5;exitY=0;exitDx=0;exitDy=0;" edge="1" parent="1" source="kk7fCv5FlfGF7tGa9pOw-56" target="kk7fCv5FlfGF7tGa9pOw-58">
          <mxGeometry relative="1" as="geometry" />
        </mxCell>
        <mxCell id="kk7fCv5FlfGF7tGa9pOw-56" value="arry[i]" style="shape=document;whiteSpace=wrap;html=1;boundedLbl=1;fontSize=16;rounded=1;" vertex="1" parent="1">
          <mxGeometry x="379" y="874" width="120" height="80" as="geometry" />
        </mxCell>
        <mxCell id="kk7fCv5FlfGF7tGa9pOw-57" style="edgeStyle=elbowEdgeStyle;rounded=0;orthogonalLoop=1;jettySize=auto;html=1;exitX=0;exitY=0.5;exitDx=0;exitDy=0;entryX=0;entryY=0.5;entryDx=0;entryDy=0;fontSize=12;startSize=8;endSize=8;" edge="1" parent="1" source="kk7fCv5FlfGF7tGa9pOw-56" target="kk7fCv5FlfGF7tGa9pOw-52">
          <mxGeometry relative="1" as="geometry">
            <Array as="points">
              <mxPoint x="282" y="647" />
              <mxPoint x="287" y="707" />
            </Array>
          </mxGeometry>
        </mxCell>
        <mxCell id="kk7fCv5FlfGF7tGa9pOw-58" value="stop" style="whiteSpace=wrap;html=1;fontSize=16;rounded=1;" vertex="1" parent="1">
          <mxGeometry x="384" y="1004" width="113" height="21" as="geometry" />
        </mxCell>
      </root>
    </mxGraphModel>
  </diagram>
</mxfile>
